#Comment line ignore any data following # character 
#Hierarchical Translation and Rotation (.htr) file 
[Header]	
#Header keywords are followed by a single value 
FileType HTR		#Single word string
DataType HTRS		#Translation followed by rotation and scale data
FileVersion 1		#integer
NumSegments 84		#integer
NumFrames 2		#integer
DataFrameRate 30		#integer, data frame rate in this file
EulerRotationOrder ZYX
CalibrationUnits mm
RotationUnits Degrees
GlobalAxisofGravity Y
BoneLengthAxis Y
ScaleFactor 1.00
[SegmentNames&Hierarchy]
#CHILD	PARENT
MASTER GLOBAL
root MASTER
chest root
L_mid_tent01 root
R_mid_tent01 root
spine01 root
Bip01_Neck chest
L_humerus chest
R_humerus chest
weapon_bone chest
Bip01_Head Bip01_Neck
eye_left_bone Bip01_Head
eye_right_bone Bip01_Head
L_forearm L_humerus
L_front_hand L_forearm
L_weapon_bone L_forearm
L_front_hand01_01 L_front_hand
L_front_hand02_01 L_front_hand
L_front_hand03_01 L_front_hand
L_front_hand01_02 L_front_hand01_01
L_front_hand02_02 L_front_hand02_01
L_front_hand03_02 L_front_hand03_01
R_forearm R_humerus
R_front_hand R_forearm
R_weapon_bone R_forearm
R_front_hand01_01 R_front_hand
R_front_hand02_01 R_front_hand
R_front_hand03_01 R_front_hand
R_front_hand01_02 R_front_hand01_01
R_front_hand02_02 R_front_hand02_01
R_front_hand03_02 R_front_hand03_01
null_rope01_connect L_mid_tent01
Rope1_Seg01 null_rope01_connect
Rope1_Seg02 Rope1_Seg01
Rope1_Seg03 Rope1_Seg02
Rope1_Seg04 Rope1_Seg03
Rope1_Seg05 Rope1_Seg04
Rope1_Seg06 Rope1_Seg05
Rope1_Seg07 Rope1_Seg06
Rope1_Seg09 Rope1_Seg07
L_mid_hand01 Rope1_Seg09
L_mid_hand02 Rope1_Seg09
L_mid_hand03 Rope1_Seg09
null_rope02_connect R_mid_tent01
Rope2_Seg01 null_rope02_connect
Rope2_Seg02 Rope2_Seg01
Rope2_Seg03 Rope2_Seg02
Rope2_Seg04 Rope2_Seg03
Rope2_Seg05 Rope2_Seg04
Rope2_Seg06 Rope2_Seg05
Rope2_Seg07 Rope2_Seg06
Rope2_Seg09 Rope2_Seg07
R_mid_hand01 Rope2_Seg09
R_mid_hand02 Rope2_Seg09
R_mid_hand03 Rope2_Seg09
spine02 spine01
spine03 spine02
pelvis spine03
null_rope03_connect pelvis
null_rope04_connect pelvis
Rope3_Seg01 null_rope03_connect
Rope3_Seg02 Rope3_Seg01
Rope3_Seg03 Rope3_Seg02
Rope3_Seg04 Rope3_Seg03
Rope3_Seg05 Rope3_Seg04
Rope3_Seg06 Rope3_Seg05
Rope3_Seg07 Rope3_Seg06
Rope3_Seg08 Rope3_Seg07
Rope3_Seg09 Rope3_Seg08
R_rear_hand01 Rope3_Seg09
R_rear_hand02 Rope3_Seg09
R_rear_hand03 Rope3_Seg09
Rope4_Seg01 null_rope04_connect
Rope4_Seg02 Rope4_Seg01
Rope4_Seg03 Rope4_Seg02
Rope4_Seg04 Rope4_Seg03
Rope4_Seg05 Rope4_Seg04
Rope4_Seg06 Rope4_Seg05
Rope4_Seg07 Rope4_Seg06
Rope4_Seg08 Rope4_Seg07
Rope4_Seg09 Rope4_Seg08
L_rear_hand01 Rope4_Seg09
L_rear_hand02 Rope4_Seg09
L_rear_hand03 Rope4_Seg09
[BasePosition]
#SegmentName Tx, Ty, Tz, Rx, Ry, Rz, BoneLength
MASTER 0.000000 0.000000 0.000000 -90.000000 0.000000 0.000000 10.000000 
root 0.000000 0.000000 0.000000 0.000000 0.000000 0.000000 10.000000 
chest 0.000000 0.000000 0.000000 0.000000 0.000000 0.000000 10.000000 
L_mid_tent01 0.000000 0.000000 0.000000 0.000000 0.000000 0.000000 10.000000 
R_mid_tent01 0.000000 0.000000 0.000000 0.000000 0.000000 0.000000 10.000000 
spine01 0.000000 0.000000 0.000000 0.000000 0.000000 0.000000 10.000000 
Bip01_Neck 0.000000 0.000000 0.000000 0.000000 0.000000 0.000000 10.000000 
L_humerus 0.000000 0.000000 0.000000 0.000000 0.000000 0.000000 10.000000 
R_humerus 0.000000 0.000000 0.000000 0.000000 0.000000 0.000000 10.000000 
weapon_bone 0.000000 0.000000 0.000000 0.000000 0.000000 0.000000 10.000000 
Bip01_Head 0.000000 0.000000 0.000000 0.000000 0.000000 0.000000 10.000000 
eye_left_bone 0.000000 0.000000 0.000000 0.000000 0.000000 0.000000 10.000000 
eye_right_bone 0.000000 0.000000 0.000000 0.000000 0.000000 0.000000 10.000000 
L_forearm 0.000000 0.000000 0.000000 0.000000 0.000000 0.000000 10.000000 
L_front_hand 0.000000 0.000000 0.000000 0.000000 0.000000 0.000000 10.000000 
L_weapon_bone 0.000000 0.000000 0.000000 0.000000 0.000000 0.000000 10.000000 
L_front_hand01_01 0.000000 0.000000 0.000000 0.000000 0.000000 0.000000 10.000000 
L_front_hand02_01 0.000000 0.000000 0.000000 0.000000 0.000000 0.000000 10.000000 
L_front_hand03_01 0.000000 0.000000 0.000000 0.000000 0.000000 0.000000 10.000000 
L_front_hand01_02 0.000000 0.000000 0.000000 0.000000 0.000000 0.000000 10.000000 
L_front_hand02_02 0.000000 0.000000 0.000000 0.000000 0.000000 0.000000 10.000000 
L_front_hand03_02 0.000000 0.000000 0.000000 0.000000 0.000000 0.000000 10.000000 
R_forearm 0.000000 0.000000 0.000000 0.000000 0.000000 0.000000 10.000000 
R_front_hand 0.000000 0.000000 0.000000 0.000000 0.000000 0.000000 10.000000 
R_weapon_bone 0.000000 0.000000 0.000000 0.000000 0.000000 0.000000 10.000000 
R_front_hand01_01 0.000000 0.000000 0.000000 0.000000 0.000000 0.000000 10.000000 
R_front_hand02_01 0.000000 0.000000 0.000000 0.000000 0.000000 0.000000 10.000000 
R_front_hand03_01 0.000000 0.000000 0.000000 0.000000 0.000000 0.000000 10.000000 
R_front_hand01_02 0.000000 0.000000 0.000000 0.000000 0.000000 0.000000 10.000000 
R_front_hand02_02 0.000000 0.000000 0.000000 0.000000 0.000000 0.000000 10.000000 
R_front_hand03_02 0.000000 0.000000 0.000000 0.000000 0.000000 0.000000 10.000000 
null_rope01_connect 0.000000 0.000000 0.000000 0.000000 0.000000 0.000000 10.000000 
Rope1_Seg01 0.000000 0.000000 0.000000 0.000000 0.000000 0.000000 10.000000 
Rope1_Seg02 0.000000 0.000000 0.000000 0.000000 0.000000 0.000000 10.000000 
Rope1_Seg03 0.000000 0.000000 0.000000 0.000000 0.000000 0.000000 10.000000 
Rope1_Seg04 0.000000 0.000000 0.000000 0.000000 0.000000 0.000000 10.000000 
Rope1_Seg05 0.000000 0.000000 0.000000 0.000000 0.000000 0.000000 10.000000 
Rope1_Seg06 0.000000 0.000000 0.000000 0.000000 0.000000 0.000000 10.000000 
Rope1_Seg07 0.000000 0.000000 0.000000 0.000000 0.000000 0.000000 10.000000 
Rope1_Seg09 0.000000 0.000000 0.000000 0.000000 0.000000 0.000000 10.000000 
L_mid_hand01 0.000000 0.000000 0.000000 0.000000 0.000000 0.000000 10.000000 
L_mid_hand02 0.000000 0.000000 0.000000 0.000000 0.000000 0.000000 10.000000 
L_mid_hand03 0.000000 0.000000 0.000000 0.000000 0.000000 0.000000 10.000000 
null_rope02_connect 0.000000 0.000000 0.000000 0.000000 0.000000 0.000000 10.000000 
Rope2_Seg01 0.000000 0.000000 0.000000 0.000000 0.000000 0.000000 10.000000 
Rope2_Seg02 0.000000 0.000000 0.000000 0.000000 0.000000 0.000000 10.000000 
Rope2_Seg03 0.000000 0.000000 0.000000 0.000000 0.000000 0.000000 10.000000 
Rope2_Seg04 0.000000 0.000000 0.000000 0.000000 0.000000 0.000000 10.000000 
Rope2_Seg05 0.000000 0.000000 0.000000 0.000000 0.000000 0.000000 10.000000 
Rope2_Seg06 0.000000 0.000000 0.000000 0.000000 0.000000 0.000000 10.000000 
Rope2_Seg07 0.000000 0.000000 0.000000 0.000000 0.000000 0.000000 10.000000 
Rope2_Seg09 0.000000 0.000000 0.000000 0.000000 0.000000 0.000000 10.000000 
R_mid_hand01 0.000000 0.000000 0.000000 0.000000 0.000000 0.000000 10.000000 
R_mid_hand02 0.000000 0.000000 0.000000 0.000000 0.000000 0.000000 10.000000 
R_mid_hand03 0.000000 0.000000 0.000000 0.000000 0.000000 0.000000 10.000000 
spine02 0.000000 0.000000 0.000000 0.000000 0.000000 0.000000 10.000000 
spine03 0.000000 0.000000 0.000000 0.000000 0.000000 0.000000 10.000000 
pelvis 0.000000 0.000000 0.000000 0.000000 0.000000 0.000000 10.000000 
null_rope03_connect 0.000000 0.000000 0.000000 0.000000 0.000000 0.000000 10.000000 
null_rope04_connect 0.000000 0.000000 0.000000 0.000000 0.000000 0.000000 10.000000 
Rope3_Seg01 0.000000 0.000000 0.000000 0.000000 0.000000 0.000000 10.000000 
Rope3_Seg02 0.000000 0.000000 0.000000 0.000000 0.000000 0.000000 10.000000 
Rope3_Seg03 0.000000 0.000000 0.000000 0.000000 0.000000 0.000000 10.000000 
Rope3_Seg04 0.000000 0.000000 0.000000 0.000000 0.000000 0.000000 10.000000 
Rope3_Seg05 0.000000 0.000000 0.000000 0.000000 0.000000 0.000000 10.000000 
Rope3_Seg06 0.000000 0.000000 0.000000 0.000000 0.000000 0.000000 10.000000 
Rope3_Seg07 0.000000 0.000000 0.000000 0.000000 0.000000 0.000000 10.000000 
Rope3_Seg08 0.000000 0.000000 0.000000 0.000000 0.000000 0.000000 10.000000 
Rope3_Seg09 0.000000 0.000000 0.000000 0.000000 0.000000 0.000000 10.000000 
R_rear_hand01 0.000000 0.000000 0.000000 0.000000 0.000000 0.000000 10.000000 
R_rear_hand02 0.000000 0.000000 0.000000 0.000000 0.000000 0.000000 10.000000 
R_rear_hand03 0.000000 0.000000 0.000000 0.000000 0.000000 0.000000 10.000000 
Rope4_Seg01 0.000000 0.000000 0.000000 0.000000 0.000000 0.000000 10.000000 
Rope4_Seg02 0.000000 0.000000 0.000000 0.000000 0.000000 0.000000 10.000000 
Rope4_Seg03 0.000000 0.000000 0.000000 0.000000 0.000000 0.000000 10.000000 
Rope4_Seg04 0.000000 0.000000 0.000000 0.000000 0.000000 0.000000 10.000000 
Rope4_Seg05 0.000000 0.000000 0.000000 0.000000 0.000000 0.000000 10.000000 
Rope4_Seg06 0.000000 0.000000 0.000000 0.000000 0.000000 0.000000 10.000000 
Rope4_Seg07 0.000000 0.000000 0.000000 0.000000 0.000000 0.000000 10.000000 
Rope4_Seg08 0.000000 0.000000 0.000000 0.000000 0.000000 0.000000 10.000000 
Rope4_Seg09 0.000000 0.000000 0.000000 0.000000 0.000000 0.000000 10.000000 
L_rear_hand01 0.000000 0.000000 0.000000 0.000000 0.000000 0.000000 10.000000 
L_rear_hand02 0.000000 0.000000 0.000000 0.000000 0.000000 0.000000 10.000000 
L_rear_hand03 0.000000 0.000000 0.000000 0.000000 0.000000 0.000000 10.000000 
#Beginning of Data. Separated by tabs
#Fr	Tx	Ty	Tz	Rx	Ry	Rz	SF
[MASTER]
3 0.000000 0.000000 0.000000 0.001660 0.001660 0.001660 0.000000
4 0.000000 0.000000 0.000000 0.001660 0.001660 0.001660 0.000000
[root]
3 -19.200474 -3.071971 1455.172852 -94.193565 -13.499425 -91.214561 1455.302856
4 -22.045288 -11.433833 1462.398193 -96.677650 -15.404926 -92.833305 1462.609009
[chest]
3 -84.512650 -34.090519 0.000000 -1.973190 0.874641 161.181213 91.129311
4 -84.512650 -34.090519 0.000000 -1.854517 1.502135 157.248306 91.129311
[L_mid_tent01]
3 27.299124 22.179106 -249.918732 -7.450209 14.282864 48.000816 252.381714
4 27.299126 22.179106 -249.918732 -0.948318 12.429466 65.449951 252.381714
[R_mid_tent01]
3 23.228794 24.509907 226.238495 176.350143 -10.754719 52.128448 228.744751
4 23.228794 24.509907 226.238495 169.412140 -5.860577 64.656914 228.744751
[spine01]
3 -0.361383 -0.195265 0.000000 0.002009 0.001220 27.465841 0.410763
4 -0.361383 -0.195265 0.000000 0.002036 0.001171 30.174353 0.410763
[Bip01_Neck]
3 165.484543 71.581718 0.000119 176.643677 -1.657967 43.431911 180.302734
4 165.484543 71.581718 0.000119 176.643677 -1.657967 43.431911 180.302734
[L_humerus]
3 -13.983130 -135.272980 -120.471481 -23.732813 79.701263 72.839722 181.680161
4 -13.983130 -135.272980 -120.471481 -83.257607 85.590607 17.564493 181.680161
[R_humerus]
3 -13.983309 -135.273102 125.287651 55.913906 -78.948692 40.138306 184.909012
4 -13.983309 -135.273102 125.287651 105.521919 -81.073158 -9.182003 184.909012
[weapon_bone]
3 235.964890 -300.705902 0.000000 0.000000 -89.951546 -128.212341 382.234833
4 235.964890 -300.705902 0.000000 0.000000 -89.951546 -128.212341 382.234833
[Bip01_Head]
3 213.444138 185.715500 11.776935 5.702794 2.803406 -43.899673 283.173706
4 213.444153 185.715500 11.776935 6.541756 2.816928 -43.901932 283.173706
[eye_left_bone]
3 -24.626970 125.451866 -64.772606 0.000000 -90.000000 -99.840431 143.318359
4 -24.626970 125.451866 -64.772606 0.000000 -90.000000 -99.840431 143.318359
[eye_right_bone]
3 -24.626970 125.451866 64.327362 0.000000 -89.980217 80.156387 143.117676
4 -24.626970 125.451866 64.327362 0.000000 -89.965736 80.156380 143.117676
[L_forearm]
3 322.776093 0.000000 -0.000119 0.000396 -0.002314 -109.419975 322.776093
4 322.776093 0.000000 -0.000119 0.000396 -0.002314 -109.419975 322.776093
[L_front_hand]
3 241.149185 -0.042021 -3.300071 -178.667953 -1.835447 -27.422350 241.171753
4 241.149185 -0.042021 -3.300071 -178.667953 -1.835447 -27.422342 241.171753
[L_weapon_bone]
3 156.183838 0.000000 0.000000 0.000014 0.000007 0.000001 156.183838
4 156.183838 0.000000 0.000000 0.000014 0.000007 0.000001 156.183838
[L_front_hand01_01]
3 86.095154 20.947098 -0.655860 -0.366594 -0.477154 75.385574 88.609184
4 86.095154 20.947098 -0.655860 -0.365110 -0.478290 75.029732 88.609184
[L_front_hand02_01]
3 86.935165 -11.437475 24.513514 154.399796 -59.883835 -61.369587 91.046425
4 86.935165 -11.437475 24.513514 153.848465 -59.731331 -60.727486 91.046425
[L_front_hand03_01]
3 86.637497 -14.123976 -20.424902 -153.913849 58.118122 -62.702866 90.126129
4 86.637497 -14.123976 -20.424902 -153.408203 57.957939 -62.104698 90.126129
[L_front_hand01_02]
3 71.020905 -0.000179 0.000030 0.000320 -0.002325 -105.661407 71.020905
4 71.020905 -0.000179 0.000030 0.000319 -0.002325 -105.624153 71.020905
[L_front_hand02_02]
3 71.020927 -0.000119 0.000060 0.000320 -0.002325 -105.661407 71.020927
4 71.020927 -0.000119 0.000060 0.000319 -0.002325 -105.624153 71.020927
[L_front_hand03_02]
3 71.020905 -0.000060 0.000060 0.000320 -0.002325 -105.661407 71.020905
4 71.020905 -0.000060 0.000060 0.000319 -0.002325 -105.624153 71.020905
[R_forearm]
3 322.776428 -0.000060 0.000030 0.202103 0.065158 -108.062820 322.776428
4 322.776428 -0.000060 0.000030 0.202103 0.065158 -108.062805 322.776428
[R_front_hand]
3 238.847015 -0.006795 2.210259 -2.635298 -10.645461 -26.312506 238.857239
4 238.847015 -0.006795 2.210259 -2.635298 -10.645461 -26.312506 238.857239
[R_weapon_bone]
3 155.664093 0.002503 -0.000030 0.003487 0.001180 -90.988930 155.664078
4 155.664093 0.002503 -0.000030 0.003487 0.001180 -90.988930 155.664078
[R_front_hand01_01]
3 87.624611 14.231146 22.918642 -154.633499 -59.950619 61.746044 91.683487
4 87.624611 14.231146 22.918642 -154.168335 -59.819534 61.204498 91.683487
[R_front_hand02_01]
3 89.356956 14.367283 -19.491137 154.602661 58.302849 63.744389 92.579636
4 89.356956 14.367283 -19.491137 154.164093 58.176956 63.233932 92.579636
[R_front_hand03_01]
3 87.286232 -22.307278 -0.143439 0.162155 -0.423168 -75.767921 90.091743
4 87.286232 -22.307278 -0.143439 0.161068 -0.423583 -75.473686 90.091743
[R_front_hand01_02]
3 71.020905 0.000060 0.000119 0.002323 -0.000334 106.381714 71.020905
4 71.020905 0.000060 0.000119 0.002323 -0.000334 106.381714 71.020905
[R_front_hand02_02]
3 71.020844 -0.000030 -0.000119 0.002323 -0.000334 106.381714 71.020836
4 71.020844 -0.000030 -0.000119 0.002323 -0.000334 106.381714 71.020836
[R_front_hand03_02]
3 71.020905 0.000000 0.000030 0.002323 -0.000334 106.381714 71.020905
4 71.020905 0.000000 0.000030 0.002323 -0.000334 106.381714 71.020905
[null_rope01_connect]
3 328.732483 0.000000 -0.000238 -152.305649 -69.297203 -153.181488 328.732483
4 328.732483 0.000000 -0.000238 -144.567505 -69.618225 -175.746033 328.732483
[Rope1_Seg01]
3 -0.000037 0.000035 0.000141 65.725227 -22.130552 -134.403564 0.000150
4 -0.000036 0.000034 0.000136 85.354568 -22.900402 -154.176331 0.000144
[Rope1_Seg02]
3 139.999863 -0.000179 0.000000 2.169705 5.052279 -9.037670 139.999863
4 139.999863 -0.000179 0.000000 6.454171 -1.143912 -11.251379 139.999863
[Rope1_Seg03]
3 139.999924 0.000060 -0.000060 1.999715 7.699137 -10.826899 139.999924
4 139.999924 0.000060 -0.000060 6.172162 3.269496 -12.502623 139.999924
[Rope1_Seg04]
3 139.999924 -0.000060 -0.000119 17.509554 -3.652993 -7.163243 139.999924
4 139.999924 -0.000060 -0.000119 24.135872 -37.491543 -7.072844 139.999924
[Rope1_Seg05]
3 139.999832 0.000119 -0.000060 15.577312 -8.977599 -2.320258 139.999832
4 139.999832 0.000119 -0.000060 1.676949 -22.311388 6.425388 139.999832
[Rope1_Seg06]
3 139.999954 0.000119 -0.000060 8.609242 -6.196732 -1.115889 139.999954
4 139.999954 0.000119 -0.000060 -0.211214 -8.713582 2.468198 139.999954
[Rope1_Seg07]
3 139.999985 0.000060 0.000000 2.620016 -2.307227 -0.065950 139.999985
4 139.999985 0.000060 0.000000 -0.209970 -3.414687 0.957926 139.999985
[Rope1_Seg09]
3 121.602913 0.000119 -0.000089 -89.793175 -1.359789 0.847147 121.602913
4 121.602913 0.000119 -0.000089 -89.793175 -1.359789 0.847147 121.602913
[L_mid_hand01]
3 103.859421 1.038730 8.195221 122.768761 -62.736202 -30.309952 104.187431
4 103.859421 1.038730 8.195221 117.557777 -57.596771 -24.308178 104.187431
[L_mid_hand02]
3 105.572853 -4.139662 -10.864139 -163.513275 41.970188 -65.532753 106.211075
4 105.572853 -4.139662 -10.864139 -158.628601 40.042351 -58.095745 106.211075
[L_mid_hand03]
3 104.641464 17.579376 -3.913581 -7.893288 17.080713 68.625633 106.179977
4 104.641464 17.579376 -3.913581 -9.651977 16.172661 62.497879 106.179977
[null_rope02_connect]
3 328.732849 0.000179 -0.000119 -88.689514 81.518921 39.943974 328.732849
4 328.732849 0.000179 -0.000119 -39.407906 78.537689 100.226715 328.732849
[Rope2_Seg01]
3 0.000059 0.000112 0.000000 59.520878 8.246271 -50.525246 0.000127
4 0.000051 0.000112 0.000000 -147.066986 28.838251 -40.961483 0.000123
[Rope2_Seg02]
3 139.999741 -0.000060 -0.000119 -148.056137 54.038074 -0.157729 139.999756
4 139.999741 -0.000060 -0.000119 48.725163 -39.719444 -23.545662 139.999756
[Rope2_Seg03]
3 140.000107 0.000030 0.000000 -1.675169 -19.979141 9.442119 140.000107
4 140.000107 0.000030 0.000000 3.343984 -13.165778 -0.269787 140.000107
[Rope2_Seg04]
3 139.999802 0.000000 -0.000060 -2.574033 -1.137128 6.878189 139.999802
4 139.999802 0.000000 -0.000060 -0.293455 -3.846651 2.302819 139.999802
[Rope2_Seg05]
3 139.999985 -0.000060 0.000119 -8.631733 12.135098 32.356083 139.999985
4 139.999985 -0.000060 0.000119 -1.725240 -2.530795 6.177547 139.999985
[Rope2_Seg06]
3 139.999893 -0.000030 -0.000119 -3.725306 4.049839 51.576302 139.999893
4 139.999893 -0.000030 -0.000119 -3.454390 -4.337620 18.175915 139.999893
[Rope2_Seg07]
3 139.999893 0.000060 -0.000060 1.828838 -0.429626 16.268547 139.999893
4 139.999893 0.000060 -0.000060 -0.531689 -7.639948 21.410484 139.999893
[Rope2_Seg09]
3 121.338966 0.000089 -0.000060 33.793236 -1.359788 -0.847141 121.338966
4 121.338966 0.000089 -0.000060 33.793236 -1.359788 -0.847141 121.338966
[R_mid_hand01]
3 104.680779 11.144459 -10.335981 -18.585432 44.487873 67.094742 105.778534
4 104.680779 11.144459 -10.335981 -21.077972 43.559654 63.514454 105.778534
[R_mid_hand02]
3 104.070427 2.443552 8.231699 52.755077 -65.811348 35.278687 104.424065
4 104.070427 2.443552 8.231699 56.113056 -63.580791 31.561979 104.424065
[R_mid_hand03]
3 106.028137 -11.221827 -5.996406 -176.406250 15.411082 -73.996964 106.788818
4 106.028137 -11.221827 -5.996406 -175.658295 15.220737 -71.161560 106.788818
[spine02]
3 129.756927 0.001550 0.000119 0.360061 -4.044798 -12.915059 129.756927
4 129.756927 0.001550 0.000119 0.360061 -4.044796 -12.915055 129.756927
[spine03]
3 78.614067 0.081635 -4.899006 1.896495 3.831288 16.473045 78.766602
4 78.614067 0.081635 -4.899007 1.896495 3.831288 16.473045 78.766602
[pelvis]
3 169.435242 0.051022 0.000000 -0.060465 -0.180225 14.087931 169.435257
4 169.435242 0.051022 0.000000 -0.060465 -0.180225 14.087930 169.435257
[null_rope03_connect]
3 -1.257226 -2.466202 137.391083 -143.260056 -86.327415 -158.365143 137.418976
4 -1.257226 -2.466202 137.391083 -138.999847 -82.962936 -163.518768 137.418976
[null_rope04_connect]
3 -1.259640 -2.480268 -137.844437 -143.260056 -86.327415 -158.365143 137.872513
4 -1.259640 -2.480268 -137.844437 -138.999847 -82.962936 -163.518768 137.872513
[Rope3_Seg01]
3 0.000010 0.000035 -0.000141 -130.378220 0.045486 -88.153732 0.000146
4 0.000010 0.000034 -0.000136 -130.201096 -9.091634 -81.695633 0.000140
[Rope3_Seg02]
3 139.999924 -0.000119 0.000060 2.131186 -15.347413 -15.010162 139.999924
4 139.999924 -0.000119 0.000060 5.722562 -20.120575 -24.359133 139.999924
[Rope3_Seg03]
3 139.999924 -0.000119 0.000119 4.809514 -16.763187 -20.488775 139.999924
4 139.999924 -0.000119 0.000119 7.814597 -16.937590 -19.032110 139.999924
[Rope3_Seg04]
3 139.999924 0.000119 0.000000 4.166770 -7.973615 -4.506621 139.999924
4 139.999924 0.000119 0.000000 5.688653 -7.749460 -7.082976 139.999924
[Rope3_Seg05]
3 139.999924 -0.000238 0.000060 8.489529 -0.975277 23.276011 139.999924
4 139.999924 -0.000238 0.000060 17.013174 -10.066192 -7.860776 139.999924
[Rope3_Seg06]
3 139.999893 -0.000119 -0.000060 3.582625 0.120774 36.894142 139.999893
4 139.999893 -0.000119 -0.000060 126.891106 -30.177887 -13.077595 139.999893
[Rope3_Seg07]
3 139.999771 0.000060 -0.000119 -1.684070 0.639133 16.720659 139.999771
4 139.999771 0.000060 -0.000119 13.009350 5.745553 27.880632 139.999771
[Rope3_Seg08]
3 139.999985 -0.000060 0.000000 0.535796 0.001652 0.001667 139.999985
4 139.999985 -0.000060 0.000000 1.393283 2.232159 5.091227 139.999985
[Rope3_Seg09]
3 90.185997 -0.000179 -0.000060 89.793228 -1.359877 -0.847183 90.185997
4 90.185997 -0.000179 -0.000060 89.793228 -1.359877 -0.847183 90.185997
[R_rear_hand01]
3 103.366196 -6.073594 -10.757982 -176.223145 24.392633 -70.328133 104.101845
4 103.366196 -6.073594 -10.757982 -174.645599 24.116417 -66.484734 104.101845
[R_rear_hand02]
3 100.509819 12.039542 -7.992327 -15.220166 36.074886 68.224678 101.543350
4 100.509819 12.039542 -7.992327 -17.631472 35.080391 64.074837 101.543350
[R_rear_hand03]
3 101.539970 5.215704 5.435467 74.170250 -68.693832 18.657972 101.819031
4 101.539970 5.215704 5.435467 76.292534 -65.296883 16.360811 101.819031
[Rope4_Seg01]
3 0.000010 0.000038 -0.000114 49.399738 12.934001 -101.117294 0.000121
4 0.000010 0.000038 -0.000114 48.346371 -5.936895 -96.882828 0.000121
[Rope4_Seg02]
3 139.999985 0.000060 0.000119 0.594235 -12.572227 -4.518129 139.999985
4 139.999985 0.000060 0.000119 3.565947 -27.560839 -14.933779 139.999985
[Rope4_Seg03]
3 139.999924 0.000000 -0.000238 1.948926 -18.557053 -6.108017 139.999924
4 139.999924 0.000000 -0.000238 1.521092 -24.250174 -13.624593 139.999924
[Rope4_Seg04]
3 139.999985 0.000000 0.000119 3.597877 -18.670946 -5.691373 139.999985
4 139.999985 0.000000 0.000119 -1.402420 -11.017491 -6.176897 139.999985
[Rope4_Seg05]
3 139.999802 -0.000060 -0.000119 -4.679481 6.803957 -2.284972 139.999802
4 139.999802 -0.000060 -0.000119 2.688780 -1.839539 0.245449 139.999802
[Rope4_Seg06]
3 139.999924 0.000000 0.000060 -3.760700 10.825513 -0.901549 139.999924
4 139.999924 0.000000 0.000060 6.870409 2.817975 4.716778 139.999924
[Rope4_Seg07]
3 139.999802 0.000000 0.000000 -1.678490 5.495048 -0.960340 139.999802
4 139.999802 0.000000 0.000000 5.655746 0.967696 3.610456 139.999802
[Rope4_Seg08]
3 139.999924 0.000000 0.000119 -2.409873 3.592519 -0.524303 139.999924
4 139.999924 0.000000 0.000119 3.219640 0.590219 3.185188 139.999924
[Rope4_Seg09]
3 90.185791 0.000060 0.000060 -135.617828 2.228885 0.850567 90.185791
4 90.185791 0.000060 0.000060 -135.617828 2.228885 0.850567 90.185791
[L_rear_hand01]
3 101.696655 -8.392275 -7.654577 -20.899939 -33.398575 121.731514 102.329041
4 101.696655 -8.392275 -7.654577 -26.492680 -29.377405 132.437332 102.329041
[L_rear_hand02]
3 102.726799 -1.568258 5.773216 78.453453 60.332115 166.070587 102.900848
4 102.726799 -1.568258 5.773216 81.034637 50.508049 169.196075 102.900848
[L_rear_hand03]
3 104.552910 9.721220 -10.420293 -172.410751 -23.539022 -119.041595 105.519653
4 104.552910 9.721220 -10.420293 -168.285919 -21.860432 -129.705994 105.519653
